<svg height="444pt" viewBox="0 -18 444.8228 444" width="444pt" xmlns="http://www.w3.org/2000/svg"><path d="m62.28125 171.414062h5.082031c4.953125 20 22.3125 33.191407 42.910157 33.191407 20.601562 0 37.960937-13.191407 42.914062-33.191407h133.960938c4.953124 20 22.3125 33.191407 42.914062 33.191407 20.597656 0 37.957031-13.191407 42.910156-33.191407h9.566406c9.207032.082032 18.066407-3.507812 24.613282-9.980468 6.546875-6.476563 10.242187-15.292969 10.257812-24.5v-25.957032c-.007812-13.683593-7.996094-26.101562-20.445312-31.785156l-31.359375-14.257812-27.644531-44.039063c-8-12.820312-22.074219-20.570312-37.183594-20.480469h-117.554688c-13.675781-.003906-26.574218 6.347657-34.910156 17.191407l-35.582031 46.667969-59.628907 16.269531c-15.160156 4.164062-25.671874 17.9375-25.691406 33.652343v22.738282c.019532 9.207031 3.710938 18.023437 10.257813 24.5 6.546875 6.472656 15.40625 10.066406 24.613281 9.980468zm47.992188 17.625c-15.644532-.003906-28.328126-12.691406-28.328126-28.335937.003907-15.648437 12.6875-28.332031 28.335938-28.328125 15.644531 0 28.328125 12.683594 28.328125 28.332031-.015625 15.640625-12.691406 28.316407-28.335937 28.332031zm219.789062 0c-15.648438 0-28.332031-12.6875-28.332031-28.332031 0-15.648437 12.683593-28.332031 28.332031-28.332031 15.644531 0 28.332031 12.683594 28.332031 28.332031-.019531 15.636719-12.695312 28.3125-28.332031 28.332031zm-286.652344-74.84375c.003906-8.515624 5.695313-15.980468 13.90625-18.242187l62.253906-17.011719c1.695313-.464844 3.1875-1.472656 4.25-2.871094l37.222657-48.773437c5.300781-6.878906 13.496093-10.902344 22.179687-10.882813h117.554688c9.597656-.074218 18.542968 4.835938 23.632812 12.972657l28.925782 46.132812c.835937 1.324219 2.042968 2.371094 3.472656 3.011719l33.542968 15.242188c6.734376 3.074218 11.058594 9.796874 11.058594 17.203124v25.957032c-.011718 4.964844-2.019531 9.714844-5.566406 13.191406-3.546875 3.472656-8.339844 5.378906-13.304688 5.289062h-8.417968c-2.476563-22.46875-21.460938-39.472656-44.058594-39.472656-22.601562 0-41.585938 17.003906-44.0625 39.472656h-131.664062c-2.476563-22.46875-21.460938-39.472656-44.0625-39.472656-22.601563 0-41.582032 17.003906-44.058594 39.472656h-3.933594c-4.964844.089844-9.757812-1.816406-13.304688-5.289062-3.546874-3.476562-5.550781-8.226562-5.566406-13.191406zm0 0"/><path d="m25.191406 402c.667969 3.824219 3.988282 6.617188 7.871094 6.621094.464844 0 .929688-.039063 1.386719-.121094l65.316406-11.425781c4.351563-.761719 7.261719-4.90625 6.5-9.257813l-1.273437-7.292968 15.234374-12.371094c5.972657-4.96875 13.640626-7.421875 21.382813-6.839844l106.515625 7.785156c.175781.011719.355469.019532.535156.023438 23.722656.074218 46.851563-7.421875 66.023438-21.402344.304687-.222656.59375-.46875.863281-.734375l126.871094-124.226563c3.027343-2.960937 3.21875-7.765624.445312-10.960937-14.636719-16.898437-39.96875-19.3125-57.535156-5.488281l-58.273437 43.578125c-12.117188-14.746094-31.226563-21.839844-50.027344-18.566407l-59.566406 10.417969c-9.488282 1.648438-19.226563 1.140625-28.496094-1.484375l-6.660156-1.898437c-34.230469-9.835938-71.109376-2.179688-98.601563 20.464843l-2.507813-14.34375c-.761718-4.351562-4.90625-7.261718-9.257812-6.5l-65.316406 11.429688c-4.351563.761719-7.261719 4.90625-6.5 9.257812zm152.734375-148.253906 6.660157 1.902344c11.589843 3.28125 23.765624 3.917968 35.632812 1.855468l59.566406-10.417968c17.066406-2.960938 33.902344 6.308593 40.535156 22.308593l-89.171874 15.601563c-4.089844.707031-6.957032 4.429687-6.601563 8.566406s3.816406 7.3125 7.96875 7.3125c.464844 0 .929687-.039062 1.390625-.121094l97.910156-17.125c4.351563-.765625 7.261719-4.910156 6.5-9.257812-.636718-3.648438-1.65625-7.21875-3.039062-10.652344l59.710937-44.648438.164063-.125c8.621094-6.824218 20.617187-7.457031 29.90625-1.578124l-120.289063 117.925781c-16.136719 11.6875-35.535156 18.027343-55.457031 18.121093h-.300781l-106.242188-7.914062c-11.828125-.917969-23.550781 2.792969-32.695312 10.355469l-8.242188 6.660156-14.871093-85.039063c23.710937-23.925781 58.582031-33.023437 90.964843-23.730468zm-111.113281 1.375 22.3125 127.570312-49.550781 8.671875-22.316407-127.574219zm0 0"/></svg>