<svg xmlns="http://www.w3.org/2000/svg" viewBox="0 0 35 24.51">
    <defs>
        <style>
            .cls-1{fill:#0385db}
        </style>
    </defs>
    <g id="noun_484247_cc" transform="translate(-.9 -15.7)">
        <path id="Path_504" d="M.9 37.966V17.873A2.182 2.182 0 0 1 3.073 15.7h25.864a2.182 2.182 0 0 1 2.173 2.173v1.354a.641.641 0 0 1-1.283 0v-1.354a.943.943 0 0 0-.926-.926H3.073a.943.943 0 0 0-.926.926v3.634H27.3a.641.641 0 1 1 0 1.283H2.147V38a.943.943 0 0 0 .926.926H14.3a.641.641 0 0 1 0 1.283H3.073A2.318 2.318 0 0 1 .9 37.966zM3.964 18.8a.606.606 0 0 0 .428 1.033.6.6 0 0 0 .427-1.033.582.582 0 0 0-.855 0zm2.886 0a.606.606 0 0 0 .428 1.033.59.59 0 0 0 .428-.178.6.6 0 0 0 0-.855.581.581 0 0 0-.857 0zm2.921 0a.6.6 0 1 0 .855.855.6.6 0 0 0 0-.855.582.582 0 0 0-.855 0zm12.291 11.863l9.12-9.12a1.141 1.141 0 0 1 1.033-.356h.071a3.232 3.232 0 0 1 .748.178 4.724 4.724 0 0 1 2.636 2.6 2.28 2.28 0 0 1 .178.606c0 .071.036.143.036.214s.036.143 0 .214a1.371 1.371 0 0 1-.392.855 5085.265 5085.265 0 0 0-13.145 13.109 1.254 1.254 0 0 1-.677.356c-.962.214-1.924.392-2.85.606l-.713.143c-.071 0-.143.036-.214.036a.958.958 0 0 1-.926-1.211l.107-.57c.214-1 .428-2.031.641-3.028a1.289 1.289 0 0 1 .356-.641c.606-.606 1.211-1.211 1.817-1.853zm8.8-7.054l2.529 2.529 1.209-1.211.036-.036a.131.131 0 0 0-.036-.107 2.213 2.213 0 0 0-.107-.356 3.465 3.465 0 0 0-1.958-1.928 1.329 1.329 0 0 0-.428-.071h-.036a38.02 38.02 0 0 0-1.21 1.18zm-7.909 7.909l-2.209 2.209-1.817 1.817a51.503 51.503 0 0 0-.641 3.028l-.036.178.321-.071c.962-.214 1.924-.392 2.85-.606.036 0 .036 0 .071-.036 2.209-2.244 7.624-7.624 11.08-11.08l-2.529-2.529zM23.415 25H5.139a.641.641 0 1 0 0 1.283h18.276a.641.641 0 1 0 0-1.283zM5.139 29.7H19.1a.641.641 0 0 0 0-1.283H5.139a.639.639 0 0 0-.641.641.662.662 0 0 0 .641.642zm0 3.491h10.937a.641.641 0 1 0 0-1.283H5.139a.639.639 0 0 0-.641.641.662.662 0 0 0 .641.643zm0 3.456H14.4a.639.639 0 0 0 .641-.641.6.6 0 0 0-.606-.606h-9.26a.639.639 0 0 0-.641.641.6.6 0 0 0 .605.607z" class="cls-1" data-name="Path 504"/>
    </g>
</svg>
