<svg xmlns="http://www.w3.org/2000/svg" viewBox="0 0 30 30">
    <defs>
        <style>
            .cls-1{fill:#0385db}
        </style>
    </defs>
    <path id="Path_541" d="M1.429 98.341l19.581 19.581.014.011.039.029a.534.534 0 0 0 .109.067.5.5 0 0 0 .054.021.389.389 0 0 0 .042.016l8.063 1.919a.547.547 0 0 0 .125.015.539.539 0 0 0 .206-.041.512.512 0 0 0 .285-.279.454.454 0 0 0 .016-.039.54.54 0 0 0 .035-.18v-.021a.535.535 0 0 0-.012-.11l-1.919-8.063c0-.005 0-.011-.007-.016s-.011-.027-.016-.041a.53.53 0 0 0-.068-.13c-.01-.014-.02-.028-.032-.041s-.014-.021-.023-.03L8.34 91.429a4.887 4.887 0 1 0-6.911 6.912zm5.728-6.5l-5.313 5.317a3.8 3.8 0 0 1 5.314-5.314zm-3.041 7.651l5.375-5.375.768.768-5.375 5.375zm22.816 18.894l-5.041-1.286-.267-2.4 2.781.309a.534.534 0 0 0 .059 0 .528.528 0 0 0 .059 0 15.966 15.966 0 0 1 .171-.055.559.559 0 0 0 .075-.046.543.543 0 0 0 .085-.073.511.511 0 0 0 .054-.069.524.524 0 0 0 .052-.1.555.555 0 0 0 .027-.09c0-.017.013-.032.015-.05a.545.545 0 0 0-.005-.06.535.535 0 0 0 .005-.06l-.309-2.781 2.4.267 1.237 5.2-.262.216m-7.39-1.247L5.652 101.028l5.375-5.375 15.031 15.031-1.728-.192-7.25-7.249a.543.543 0 0 0-.768.768l7.25 7.249.288 2.592-2.592-.288-10.19-10.19a.543.543 0 1 0-.768.768l10.19 10.19zm-18.1-18.1l5.375-5.375.768.768-5.372 5.37z" class="cls-1" data-name="Path 541" transform="rotate(90 60 60)"/>
</svg>
