<svg xmlns="http://www.w3.org/2000/svg" viewBox="0 0 36.799 44.68">
    <defs>
        <style>
            .cls-1{fill:#0385db}
        </style>
    </defs>
    <g id="headset">
        <g id="Group_45" data-name="Group 45">
            <path id="Path_137" d="M74.335 20.665a2.608 2.608 0 0 0-1.67-1.238v-3.853C72.665 6.994 65.34 0 56.336 0s-16.33 6.994-16.33 15.574v3.854a2.608 2.608 0 0 0-1.661 1.272 3.488 3.488 0 0 0-.39 1.711v8.48a3.488 3.488 0 0 0 .39 1.7A2.849 2.849 0 0 0 41.061 34h1.287a1.661 1.661 0 0 0 1.661 1.562h1.462a1.661 1.661 0 0 0 1.662-1.662V19.237a1.661 1.661 0 0 0-1.661-1.661h-1.5a1.661 1.661 0 0 0-1.661 1.661v.063h-.673v-3.726C41.634 7.9 48.212 1.661 56.3 1.661S70.971 7.9 70.971 15.574V19.3H70.3v-.066a1.661 1.661 0 0 0-1.661-1.661h-1.4a1.661 1.661 0 0 0-1.661 1.661v14.721a1.661 1.661 0 0 0 1.478 1.611 5.4 5.4 0 0 1-1.343 2.834c-1.3 1.445-3.43 2.276-6.3 2.492v-.365a1.744 1.744 0 0 0-1.811-1.661h-3.559a1.744 1.744 0 0 0-1.811 1.661v2.492a1.744 1.744 0 0 0 1.811 1.661h3.6a1.744 1.744 0 0 0 1.811-1.661v-.465c3.364-.224 5.906-1.238 7.525-3.023a7.085 7.085 0 0 0 1.819-3.97 1.661 1.661 0 0 0 1.562-1.553h1.287a2.849 2.849 0 0 0 2.716-1.4 3.488 3.488 0 0 0 .39-1.7V22.41a3.489 3.489 0 0 0-.418-1.745zM44.01 32.4V20.931a1.658 1.658 0 0 0 0-.291v-1.37l1.4-.042v14.677h-1.4zm-1.662-11.51v11.446h-1.287c-.964 0-1.188-.407-1.263-.548a1.9 1.9 0 0 1-.183-.905V22.41a1.9 1.9 0 0 1 .174-.914c.075-.133.3-.548 1.263-.548zm15.475 20.848v1.138a.224.224 0 0 1-.183.116h-3.6a.915.915 0 0 1-.133 0v-2.425a.224.224 0 0 1 .166-.05h3.746zM68.67 20.931v12.974h-1.4V19.237h1.43zm4.2 10.873c-.075.133-.3.548-1.263.548h-1.276V20.965h1.279c.964 0 1.188.407 1.263.548a1.9 1.9 0 0 1 .183.905V30.9a1.9 1.9 0 0 1-.183.9z" class="cls-1" data-name="Path 137" transform="translate(-37.953)"/>
        </g>
    </g>
</svg>
