<svg xmlns="http://www.w3.org/2000/svg" viewBox="0 0 40 40">
    <defs>
        <style>
            .cls-1{fill:#0385db}
        </style>
    </defs>
    <g id="noun_1426721_cc" transform="translate(-1.176 -1.026)">
        <g id="Group_187" data-name="Group 187" transform="translate(1.176 1.026)">
            <path id="Path_468" d="M41.176 16.164a.938.938 0 0 0-.462-.809L21.736 1.214a.944.944 0 0 0-1.129 0L1.555 15.411a.939.939 0 0 0 .564 1.689h38.115a.941.941 0 0 0 .942-.936zm-36.223-.94L21.172 3.139l16.219 12.085z" class="cls-1" data-name="Path 468" transform="translate(-1.176 -1.026)"/>
            <path id="Path_469" d="M38.035 53.784c-1.132 0-2.087-.728-2.087-1.59a.943.943 0 0 0-1.885 0 3.75 3.75 0 0 0 3.972 3.468h.465v.638a.943.943 0 0 0 1.885 0v-.639h.09a3.749 3.749 0 0 0 3.969-3.468v-.134c0-.749-.393-1.85-2.266-2.832a.851.851 0 0 0-.095-.034c-.027-.011-.055-.02-.084-.03s-.047-.02-.071-.026l-.03-.006h-.013l-1.5-.308v-3.475h.09c1.132 0 2.089.725 2.089 1.582a.943.943 0 0 0 1.885 0 3.749 3.749 0 0 0-3.974-3.461h-.09v-.521a.943.943 0 0 0-1.885 0v.521h-.464a3.745 3.745 0 0 0-3.969 3.461v.137c0 1.085.746 2.025 2.218 2.795a.954.954 0 0 0 .248.087l.08.017c.018.005.036.013.055.017l1.832.373v3.427h-.465zm2.349-3.042l1.029.21c.79.436 1.146.867 1.146 1.109v.139a1.915 1.915 0 0 1-2.084 1.59h-.09v-3.048zm-3.338-2.6c-.805-.441-1.1-.839-1.1-1.07v-.142c0-.857.955-1.582 2.084-1.582h.47v3.086z" class="cls-1" data-name="Path 469" transform="translate(-19.26 -23.621)"/>
            <path id="Path_470" d="M2.851 62.476v3.2a.941.941 0 0 0 .943.94h36.6a.941.941 0 0 0 .943-.94v-3.2a.941.941 0 0 0-.943-.94H37.3V48.383a.943.943 0 0 0-1.885 0v13.154h-3.2V48.383a.943.943 0 0 0-1.885 0v13.154H14.455V48.383a.943.943 0 0 0-1.885 0v13.154H9.247V48.383a.943.943 0 0 0-1.885 0v13.154H3.793a.941.941 0 0 0-.942.939zm1.885.94H39.45v1.322H4.736z" class="cls-1" data-name="Path 470" transform="translate(-2.097 -26.617)"/>
            <path id="Path_471" d="M18.778 41.337a.939.939 0 1 0 0-1.879h-5.867a.939.939 0 1 0 0 1.879z" class="cls-1" data-name="Path 471" transform="translate(-7.11 -22.215)"/>
            <path id="Path_472" d="M69.671 41.337a.939.939 0 1 0 0-1.879H63.8a.939.939 0 1 0 0 1.879z" class="cls-1" data-name="Path 472" transform="translate(-35.096 -22.215)"/>
            <path id="Path_473" d="M35.721 13.675L29.03 18.5a.939.939 0 0 0 .552 1.7h13.392a.939.939 0 0 0 .467-1.755l-6.615-4.768a.944.944 0 0 0-1.105-.002zm4.332 4.644h-7.56l3.779-2.724z" class="cls-1" data-name="Path 473" transform="translate(-16.278 -7.901)"/>
        </g>
    </g>
</svg>
