<svg xmlns="http://www.w3.org/2000/svg" viewBox="0 0 30 29.492">
    <defs>
        <style>
            .cls-1{fill:#ff0}
        </style>
    </defs>
    <g id="Group_176" data-name="Group 176" transform="translate(-637 -8769)">
        <path id="Path_451" d="M520.5 165.493v7.342a1.821 1.821 0 0 0 1.824 1.823h11.451a527.239 527.239 0 0 1-.656-9.19H520.5zm12.351-5.811h-10.527a1.821 1.821 0 0 0-1.824 1.823v1.507H533a81.458 81.458 0 0 1-.149-3.33z" class="cls-1" data-name="Path 451" transform="translate(116.5 8623.833)"/>
        <path id="Path_452" d="M573.452 123.365a2.209 2.209 0 0 0-2.212-2.067H560.4a2.227 2.227 0 0 0-2.212 2.067 66.356 66.356 0 0 0-.243 10.284c.1 3.744.9 14.9.9 14.9a2.369 2.369 0 0 0 2.358 2.237h9.19a2.354 2.354 0 0 0 2.358-2.237s.8-11.184.9-14.9a62.711 62.711 0 0 0-.199-10.284zm-13.1 13.736a.722.722 0 0 1 .729-.754h1.719l.146 2.772h-2.5zm.17 3.307h2.5l.17 3.088h-2.5zm1.532 7.391a1.21 1.21 0 0 1-1.216-1.167l-.1-1.848h2.5l.146 3.015zm5.13 0h-2.5l-.146-3.015h2.8zm.219-4.3h-2.942l-.17-3.088h3.258zm.243-4.376h-3.4l-.146-2.772h3.7zm3.161 7.537a1.21 1.21 0 0 1-1.216 1.167h-1.094l.146-3.015h2.257zm.146-3.161h-2.261l.17-3.088h2.261zm.243-4.376h-2.261l.146-2.772h1.508a.722.722 0 0 1 .729.754zm.268-6.3a.768.768 0 0 1-.778.778h-9.725a.768.768 0 0 1-.778-.778v-7.148a.768.768 0 0 1 .778-.778h9.725a.768.768 0 0 1 .778.778z" class="cls-1" data-name="Path 452" transform="translate(93.258 8647.702)"/>
    </g>
</svg>
