<svg xmlns="http://www.w3.org/2000/svg" viewBox="0 0 30 30">
    <defs>
        <style>
            .cls-1{fill:#81cce0}
        </style>
    </defs>
    <g id="noun_1299910_cc" transform="translate(-2 -2)">
        <g id="Group_153" data-name="Group 153" transform="translate(2 2)">
            <g id="Group_151" data-name="Group 151">
                <path id="Path_411" d="M18.037 32h-2.073a2.092 2.092 0 0 1-2.089-2.089v-2.494a1.189 1.189 0 0 0-2.031-.841l-1.763 1.763a2.092 2.092 0 0 1-2.955 0l-1.465-1.465a2.088 2.088 0 0 1 0-2.954l1.763-1.764a1.189 1.189 0 0 0-.841-2.03H4.09A2.092 2.092 0 0 1 2 18.036v-2.072a2.092 2.092 0 0 1 2.09-2.089h2.494a1.19 1.19 0 0 0 .841-2.031l-1.764-1.763a2.089 2.089 0 0 1 0-2.955l1.465-1.465a2.092 2.092 0 0 1 2.955 0l1.763 1.764a1.19 1.19 0 0 0 2.031-.841V4.089A2.091 2.091 0 0 1 15.964 2h2.072a2.091 2.091 0 0 1 2.089 2.089v2.495a1.19 1.19 0 0 0 2.031.841l1.764-1.764a2.138 2.138 0 0 1 2.954 0l1.465 1.465a2.091 2.091 0 0 1 0 2.955l-1.763 1.763a1.19 1.19 0 0 0 .841 2.031h2.494A2.092 2.092 0 0 1 32 15.964v2.072a2.092 2.092 0 0 1-2.089 2.089h-2.494a1.189 1.189 0 0 0-.841 2.03l1.763 1.764a2.088 2.088 0 0 1 0 2.954l-1.465 1.465a2.139 2.139 0 0 1-2.955 0l-1.763-1.763a1.189 1.189 0 0 0-2.031.841v2.494A2.092 2.092 0 0 1 18.037 32zm-5.367-7.029a2.479 2.479 0 0 1 .949.192 2.4 2.4 0 0 1 1.506 2.254v2.494a.84.84 0 0 0 .839.839h2.072a.84.84 0 0 0 .839-.839v-2.494a2.439 2.439 0 0 1 4.164-1.725l1.761 1.763a.858.858 0 0 0 1.187 0l1.465-1.465a.839.839 0 0 0 0-1.187l-1.76-1.763a2.439 2.439 0 0 1 1.725-4.164h2.494a.84.84 0 0 0 .839-.839v-2.073a.84.84 0 0 0-.839-.839h-2.494a2.439 2.439 0 0 1-1.725-4.164L27.455 9.2a.841.841 0 0 0 0-1.187L25.99 6.545a.858.858 0 0 0-1.187 0L23.04 8.309a2.44 2.44 0 0 1-4.164-1.725V4.089a.84.84 0 0 0-.839-.839h-2.073a.84.84 0 0 0-.839.839v2.495a2.44 2.44 0 0 1-4.164 1.725L9.2 6.545a.841.841 0 0 0-1.187 0L6.545 8.01a.839.839 0 0 0 0 1.187l1.764 1.763a2.439 2.439 0 0 1-1.725 4.164H4.09a.84.84 0 0 0-.839.839v2.072a.84.84 0 0 0 .839.839h2.494a2.439 2.439 0 0 1 1.725 4.166L6.545 24.8a.838.838 0 0 0 0 1.187l1.465 1.468a.841.841 0 0 0 1.187 0l1.763-1.763a2.4 2.4 0 0 1 1.71-.721z" class="cls-1" data-name="Path 411" transform="translate(-2 -2)"/>
            </g>
            <g id="Group_152" data-name="Group 152" transform="translate(8.749 8.749)">
                <path id="Path_412" d="M22.249 28.5a6.25 6.25 0 1 1 6.25-6.25 6.257 6.257 0 0 1-6.25 6.25zm0-11.25a5 5 0 1 0 5 5 5.006 5.006 0 0 0-5-5z" class="cls-1" data-name="Path 412" transform="translate(-15.999 -16)"/>
            </g>
        </g>
    </g>
</svg>
