<?xml version="1.0"?>
<svg xmlns="http://www.w3.org/2000/svg" height="512px" viewBox="-85 0 512 512" width="512px"><path d="m307.199219 512h-273.066407c-18.824218 0-34.132812-15.308594-34.132812-34.132812v-221.867188c0-18.824219 15.308594-34.132812 34.132812-34.132812h273.066407c18.824219 0 34.132812 15.308593 34.132812 34.132812v221.867188c0 18.824218-15.316406 34.132812-34.132812 34.132812zm-273.066407-273.066406c-9.410156 0-17.066406 7.652344-17.066406 17.066406v221.867188c0 9.410156 7.65625 17.066406 17.066406 17.066406h273.066407c9.414062 0 17.066406-7.65625 17.066406-17.066406v-221.867188c0-9.414062-7.652344-17.066406-17.066406-17.066406zm0 0" fill="#006DF0"/><path d="m281.601562 238.933594h-34.136718c-4.707032 0-8.53125-3.824219-8.53125-8.535156v-110.933594c0-37-31.265625-68.265625-68.265625-68.265625s-68.269531 31.265625-68.269531 68.265625v110.933594c0 4.710937-3.820313 8.535156-8.53125 8.535156h-34.132813c-4.710937 0-8.535156-3.824219-8.535156-8.535156v-110.933594c0-65.875 53.589843-119.464844 119.46875-119.464844 65.875 0 119.464843 53.589844 119.464843 119.464844v110.933594c0 4.710937-3.824218 8.535156-8.53125 8.535156zm-25.601562-17.066406h17.066406v-102.402344c0-56.464844-45.933594-102.398438-102.398437-102.398438-56.464844 0-102.402344 45.933594-102.402344 102.398438v102.402344h17.066406v-102.402344c0-46.25 39.082031-85.332032 85.335938-85.332032 46.25 0 85.332031 39.082032 85.332031 85.332032zm0 0" fill="#006DF0"/><path d="m196.265625 443.734375h-51.199219c-2.433594 0-4.753906-1.042969-6.375-2.859375-1.613281-1.816406-2.378906-4.242188-2.097656-6.664062l7.933594-67.867188c-10.304688-8.027344-16.527344-20.429688-16.527344-33.542969 0-23.527343 19.140625-42.667969 42.667969-42.667969 23.523437 0 42.664062 19.140626 42.664062 42.667969 0 13.113281-6.210937 25.515625-16.527343 33.542969l7.9375 67.867188c.28125 2.421874-.480469 4.847656-2.101563 6.664062s-3.941406 2.859375-6.375 2.859375zm-41.609375-17.066406h32.019531l-7.425781-63.472657c-.390625-3.378906 1.246094-6.65625 4.183594-8.363281 8.027344-4.667969 12.824218-12.902343 12.824218-22.023437 0-14.113282-11.484374-25.601563-25.601562-25.601563-14.113281 0-25.597656 11.488281-25.597656 25.601563 0 9.113281 4.796875 17.347656 12.824218 22.023437 2.9375 1.707031 4.582032 4.992188 4.183594 8.363281zm0 0" fill="#006DF0"/></svg>
