<svg xmlns="http://www.w3.org/2000/svg" viewBox="0 0 30 30">
    <defs>
        <style>
            .cls-1{fill:#cfd2d3}
        </style>
    </defs>
    <g id="icon_search" transform="translate(-269.999 -27)">
        <path id="icon_search-2" d="M23.813 21.056a12.706 12.706 0 0 0 2.625-7.826A13.162 13.162 0 0 0 13.313 0 13.322 13.322 0 0 0 0 13.23a13.322 13.322 0 0 0 13.313 13.23 12.5 12.5 0 0 0 7.875-2.609l5.625 5.59a1.82 1.82 0 0 0 2.625 0 1.794 1.794 0 0 0 0-2.609zm-10.5 1.491A9.416 9.416 0 0 1 3.75 13.23a9.563 9.563 0 0 1 19.125 0 9.416 9.416 0 0 1-9.562 9.317z" class="cls-1" data-name="icon_search" transform="translate(270 27)"/>
    </g>
</svg>
