<svg xmlns="http://www.w3.org/2000/svg" viewBox="0 0 30 39.75">
    <defs>
        <style>
            .cls-1{fill:#81cce0}
        </style>
    </defs>
    <g id="noun_883118_cc" transform="translate(-85 -77.471)">
        <path id="Path_376" d="M103.055 93.629a2.273 2.273 0 1 0-2.34-2.272 2.311 2.311 0 0 0 2.34 2.272zm0-3.161a.889.889 0 1 1-.914.888.9.9 0 0 1 .914-.888z" class="cls-1" data-name="Path 376" transform="translate(0 -.337)"/>
        <path id="Path_377" d="M109.527 93.629a2.273 2.273 0 1 0-2.34-2.272 2.311 2.311 0 0 0 2.34 2.272zm0-3.161a.889.889 0 1 1-.914.888.9.9 0 0 1 .914-.888z" class="cls-1" data-name="Path 377" transform="translate(0 -.337)"/>
        <path id="Path_378" d="M103.055 87.822a2.273 2.273 0 1 0-2.34-2.272 2.311 2.311 0 0 0 2.34 2.272zm0-3.161a.889.889 0 1 1-.914.888.9.9 0 0 1 .914-.887z" class="cls-1" data-name="Path 378" transform="translate(0 -.169)"/>
        <path id="Path_379" d="M109.527 87.822a2.274 2.274 0 1 0-2.34-2.272 2.311 2.311 0 0 0 2.34 2.272zm0-3.16a.889.889 0 1 1-.914.888.9.9 0 0 1 .914-.888z" class="cls-1" data-name="Path 379" transform="translate(0 -.169)"/>
        <path id="Path_380" d="M96.581 82.016a2.274 2.274 0 1 0-2.34-2.273 2.31 2.31 0 0 0 2.34 2.273zm0-3.161a.889.889 0 1 1-.915.888.9.9 0 0 1 .915-.887z" class="cls-1" data-name="Path 380"/>
        <path id="Path_381" d="M103.055 82.016a2.274 2.274 0 1 0-2.34-2.273 2.311 2.311 0 0 0 2.34 2.273zm0-3.161a.889.889 0 1 1-.914.888.9.9 0 0 1 .914-.887z" class="cls-1" data-name="Path 381"/>
        <path id="Path_382" d="M109.527 82.016a2.274 2.274 0 1 0-2.34-2.273 2.311 2.311 0 0 0 2.34 2.273zm0-3.161a.889.889 0 1 1-.914.888.9.9 0 0 1 .914-.887z" class="cls-1" data-name="Path 382"/>
        <path id="Path_383" d="M112.4 112.912V97.364a2.74 2.74 0 0 0-.842-1.972 2.923 2.923 0 0 0-4.054 0q-.069.066-.132.137-.063-.068-.129-.134a2.92 2.92 0 0 0-4.053 0c-.045.044-.09.089-.131.135-.041-.046-.086-.09-.13-.135a2.936 2.936 0 0 0-3.474-.438v-9.422a2.72 2.72 0 0 0-.842-1.97 2.932 2.932 0 0 0-4.056 0 2.717 2.717 0 0 0-.842 1.972V103.9a11.707 11.707 0 0 0-5.844-1.538 2.788 2.788 0 1 0 0 5.573 5.792 5.792 0 0 1 5.8 4.98h-2.559v4.462h1.425V114.3h21.037v3.076H115v-4.462zm-24.53-6.364a1.4 1.4 0 1 1 0-2.8 10.249 10.249 0 0 1 6.125 2 .729.729 0 0 0 .748.068.689.689 0 0 0 .4-.62V85.535a1.365 1.365 0 0 1 .422-.991 1.474 1.474 0 0 1 2.043 0 1.365 1.365 0 0 1 .424.99v11.83a.713.713 0 0 0 1.425 0 1.375 1.375 0 0 1 .422-.992 1.472 1.472 0 0 1 2.044 0 1.379 1.379 0 0 1 .42 1 .713.713 0 0 0 1.426 0 1.367 1.367 0 0 1 .43-1 1.471 1.471 0 0 1 2.04 0 1.389 1.389 0 0 1 .422 1 .713.713 0 0 0 1.426 0 1.371 1.371 0 0 1 .431-.994 1.471 1.471 0 0 1 2.039 0 1.383 1.383 0 0 1 .425.994v15.548H95.1a7.2 7.2 0 0 0-7.232-6.372z" class="cls-1" data-name="Path 383" transform="translate(0 -.153)"/>
    </g>
</svg>
