<svg xmlns="http://www.w3.org/2000/svg" viewBox="0 0 40 31">
    <defs>
        <style>
            .cls-1{opacity:.2}
        </style>
    </defs>
    <g id="noun_1262655_cc" transform="translate(273 201)">
        <g id="Group_416" class="cls-1" data-name="Group 416" transform="translate(-282 -220)">
            <path id="Path_547" d="M64.3 33.766a.994.994 0 0 0-1.384-.1 1.023 1.023 0 0 0-.1 1.4l4.793 5.65H52.988a1 1 0 0 0 0 2h14.627l-4.793 5.65a1.023 1.023 0 0 0 .1 1.4 1.034 1.034 0 0 0 .642.25.885.885 0 0 0 .741-.35l6.226-7.3a1.061 1.061 0 0 0 0-1.3z" data-name="Path 547" transform="translate(-21.752 -7.216)"/>
            <path id="Path_548" d="M24.318 50A15.344 15.344 0 0 0 38.5 40.4a1.019 1.019 0 0 0-.544-1.3 1 1 0 0 0-1.285.55 13.526 13.526 0 1 1 0-10.25 1 1 0 0 0 1.285.55 1.019 1.019 0 0 0 .544-1.3A15.359 15.359 0 1 0 24.318 50z" data-name="Path 548"/>
        </g>
    </g>
</svg>
