<svg xmlns="http://www.w3.org/2000/svg" id="TeamViewer_Logo_Icon_Only" viewBox="0 0 30 30">
    <defs>
        <style>
            .cls-1{fill:#fff}
        </style>
    </defs>
    <path id="path87" d="M26.865 0H3.1A3.119 3.119 0 0 0 0 3.114v23.772A3.12 3.12 0 0 0 3.117 30h23.766A3.12 3.12 0 0 0 30 26.886V3.114a3.079 3.079 0 0 0-.913-2.2A3.162 3.162 0 0 0 26.865 0zM14.988 27.4A12.4 12.4 0 1 1 27.387 15a12.4 12.4 0 0 1-12.4 12.4z" class="cls-1"/>
    <path id="path89" d="M142.16 380.276l-8.6-3.976.691 2.547h-7.184l.691-2.547-8.6 3.978 8.6 3.976-.691-2.547h7.184l-.691 2.547 8.593-3.976" class="cls-1" transform="translate(-115.67 -365.276)"/>
</svg>
