<svg xmlns="http://www.w3.org/2000/svg" viewBox="0 0 34.103 38">
    <defs>
        <style>
            .cls-1{fill:#1e2431}
        </style>
    </defs>
    <g id="noun_867355_cc" transform="translate(-15 -11)">
        <path id="Path_502" d="M47.544 39.208c-.779-.292-3.313-1.754-3.313-8.233v-3.41c0-8.038-4.482-10.864-8.379-11.741a5.4 5.4 0 0 0 .1-.926 3.9 3.9 0 1 0-7.795 0 5.969 5.969 0 0 0 .1.926c-3.8.877-8.379 3.654-8.379 11.741v3.41c0 6.479-2.533 7.941-3.313 8.233A2.441 2.441 0 0 0 15 41.5v2.144a1.435 1.435 0 0 0 1.462 1.456h10.084a5.837 5.837 0 0 0 11.01 0h10.085a1.435 1.435 0 0 0 1.459-1.459v-2.192a2.377 2.377 0 0 0-1.556-2.241zm-.39 2.241v1.705H16.949v-1.705a.372.372 0 0 1 .1-.244h30.056c0 .095.049.146.049.244zm-15.1 5.6a3.917 3.917 0 0 1-3.754-2.921h7.551a4.019 4.019 0 0 1-3.8 2.923zm0-34.1A1.954 1.954 0 0 1 34 14.9a1.89 1.89 0 0 1-.731 1.51 14.629 14.629 0 0 0-2.436 0 1.89 1.89 0 0 1-.733-1.51 1.954 1.954 0 0 1 1.951-1.951zm0 4.385c4.677 0 10.231 1.754 10.231 10.231v3.41c0 5.554 1.754 8.087 3.215 9.256H18.605c1.462-1.169 3.215-3.7 3.215-9.256v-3.41c.001-8.478 5.554-10.232 10.231-10.232z" class="cls-1" data-name="Path 502"/>
    </g>
</svg>
