<svg xmlns="http://www.w3.org/2000/svg" viewBox="0 0 40 40.002">
    <defs>
        <style>
            .cls-1{opacity:.2}
        </style>
    </defs>
    <g id="noun_1202141_cc" class="cls-1" transform="translate(-9 -6.91)">
        <g id="Group_182" data-name="Group 182" transform="translate(9 6.91)">
            <path id="Path_463" d="M9.952 42.91h19a.922.922 0 1 0 0-1.844H10.9V38.3c0-2.628 5.667-4.564 7.619-5.071 2.143-.507 4.286-1.844 4.286-3.688v-2.259a7.066 7.066 0 0 0 2.952.645H26a7.361 7.361 0 0 0 2.476-.461v2.074a2.689 2.689 0 0 0 .857 1.936.986.986 0 0 0 .714.277 1.161 1.161 0 0 0 .667-.231.913.913 0 0 0 .048-1.291 1.024 1.024 0 0 1-.381-.692V26.36a6.632 6.632 0 0 0 2.381-4.748 2.6 2.6 0 0 0 1.571-2.4v-1.151a2.71 2.71 0 0 0-1.476-2.351 11.336 11.336 0 0 0 .286-4.933c-1-3.78-7.9-4.149-10.9-3.734a3.792 3.792 0 0 0-2.667 1.383 3.817 3.817 0 0 0-.476 1.015 2.663 2.663 0 0 0-1.429 1.014c-1.238 1.337-.429 3.734.667 5.716a2.616 2.616 0 0 0-.857 1.89v1.153a2.6 2.6 0 0 0 1.571 2.4A6.381 6.381 0 0 0 20.9 25.9v3.64c0 .692-1.286 1.567-2.81 1.936a23.639 23.639 0 0 0-4.381 1.567Q9 35.257 9 38.3v3.688a.94.94 0 0 0 .952.922zM20.1 20.044a.769.769 0 0 1-.714-.784v-1.152a.813.813 0 0 1 .524-.738.845.845 0 0 0 .571-.553.9.9 0 0 0-.1-.784c-1.429-2.305-1.714-3.919-1.333-4.333a.485.485 0 0 0 .143-.184c.048-.046.19-.277.762-.277a.962.962 0 0 0 .762-.323.88.88 0 0 0 .19-.738.81.81 0 0 1 .19-.6 2.007 2.007 0 0 1 1.381-.6 11 11 0 0 1 1.81-.092c2.81 0 6.476.692 6.952 2.489a10.5 10.5 0 0 1-.476 4.887.785.785 0 0 0 .143.784.913.913 0 0 0 .714.369.811.811 0 0 1 .762.784v1.153a.806.806 0 0 1-.714.784.955.955 0 0 0-.857.922v.461a4.527 4.527 0 0 1-1.714 3.55.753.753 0 0 0-.476.369 5.112 5.112 0 0 1-2.62.783h-.238a4.974 4.974 0 0 1-4.862-4.794v-.461a.913.913 0 0 0-.8-.922z" data-name="Path 463" transform="translate(-9 -6.91)"/>
            <path id="Path_464" d="M72.733 63.154a1.793 1.793 0 0 0-1.251-1.631l-1.112-.373c0-.047-.046-.093-.046-.14l.51-1.072a1.934 1.934 0 0 0-.278-2.05 9.854 9.854 0 0 0-.7-.7 1.744 1.744 0 0 0-1.251-.466 1.517 1.517 0 0 0-.788.186l-1.066.513c-.046 0-.093-.047-.139-.047l-.371-1.118A1.852 1.852 0 0 0 64.623 55H63.6a1.786 1.786 0 0 0-1.622 1.258l-.417 1.072c-.046 0-.093.047-.139.047l-1.112-.513a1.517 1.517 0 0 0-.788-.186 1.821 1.821 0 0 0-1.251.466c-.232.233-.51.466-.7.7a1.846 1.846 0 0 0-.278 2.05l.51 1.072c0 .047-.046.093-.046.14l-1.112.419a1.859 1.859 0 0 0-1.245 1.629v1.025a1.793 1.793 0 0 0 1.251 1.631l1.112.373c0 .047.046.093.046.14l-.51 1.072a1.934 1.934 0 0 0 .278 2.05 9.852 9.852 0 0 0 .7.7 1.744 1.744 0 0 0 1.251.466 1.517 1.517 0 0 0 .788-.186l1.066-.513c.046 0 .093.047.139.047l.371 1.118a1.852 1.852 0 0 0 1.622 1.258h1.02a1.786 1.786 0 0 0 1.622-1.258l.371-1.118c.046 0 .093-.047.139-.047l1.066.513a1.517 1.517 0 0 0 .788.186 1.821 1.821 0 0 0 1.251-.466 9.856 9.856 0 0 0 .7-.7 1.846 1.846 0 0 0 .278-2.05l-.51-1.072c0-.047.046-.093.046-.14l1.112-.373a1.859 1.859 0 0 0 1.251-1.631v-.932zm-1.854.932l-1.947.7a4.523 4.523 0 0 1-.649 1.538l.881 1.91-.556.559-1.9-.885a5.617 5.617 0 0 1-1.529.652l-.7 1.957h-.829l-.7-2a4.473 4.473 0 0 1-1.529-.652l-1.9.885-.556-.559.881-1.91a5.679 5.679 0 0 1-.649-1.538l-1.993-.7V63.2l1.993-.7a4.523 4.523 0 0 1 .649-1.538l-.881-1.91.556-.559 1.9.885a5.617 5.617 0 0 1 1.529-.652l.7-2h.834l.7 2a4.474 4.474 0 0 1 1.529.652l1.9-.885.556.559-.881 1.91a5.68 5.68 0 0 1 .649 1.538l1.993.7v.419c-.004.187-.051.327-.051.467z" data-name="Path 464" transform="translate(-32.733 -32.332)"/>
            <path id="Path_465" d="M70.441 66.6a3.283 3.283 0 1 0 3.341 3.283 3.292 3.292 0 0 0-3.341-3.283zm0 4.69a1.407 1.407 0 1 1 1.432-1.407 1.394 1.394 0 0 1-1.432 1.407z" data-name="Path 465" transform="translate(-39.367 -38.606)"/>
        </g>
    </g>
</svg>
