<svg xmlns="http://www.w3.org/2000/svg" viewBox="0 0 100 98.304">
    <defs>
        <style>
            .cls-1{fill:#0385db}
        </style>
    </defs>
    <g id="Group_328" data-name="Group 328" transform="translate(-637 -8769)">
        <path id="Path_451" d="M520.5 179.051v24.474a6.07 6.07 0 0 0 6.078 6.078h38.169c-.891-11.265-1.621-21.395-2.188-30.633H520.5zm41.168-19.369h-35.09a6.07 6.07 0 0 0-6.078 6.078v5.025h41.655a294.731 294.731 0 0 1-.487-11.103z" class="cls-1" data-name="Path 451" transform="translate(116.5 8657.701)"/>
        <path id="Path_452" d="M609.8 128.188a7.362 7.362 0 0 0-7.375-6.889h-36.148a7.422 7.422 0 0 0-7.375 6.889c-.73 8.509-1.378 12.156-.811 34.28.324 12.48 3 49.678 3 49.678a7.9 7.9 0 0 0 7.861 7.456h30.633a7.846 7.846 0 0 0 7.861-7.456s2.675-37.279 3-49.678c.727-22.124.079-25.689-.646-34.28zm-43.681 45.788a2.407 2.407 0 0 1 2.431-2.512h5.75l.486 9.239h-8.347zm.563 11.024h8.347l.568 10.292h-8.347zm5.105 24.636a4.032 4.032 0 0 1-4.052-3.89l-.324-6.159h8.347l.486 10.049zm17.1 0h-8.347l-.486-10.049h9.32zm.729-14.344h-9.806L579.243 185H590.1zm.81-14.587h-11.345l-.487-9.239h12.318zm10.536 25.123a4.032 4.032 0 0 1-4.052 3.89h-3.647l.486-10.049h7.537zm.486-10.535h-7.537l.568-10.293h7.536zm.81-14.587h-7.537l.486-9.239h5.025a2.406 2.406 0 0 1 2.431 2.512zm.892-20.99a2.561 2.561 0 0 1-2.594 2.593h-32.415a2.56 2.56 0 0 1-2.593-2.593v-23.829a2.56 2.56 0 0 1 2.593-2.593h32.416a2.561 2.561 0 0 1 2.594 2.593z" class="cls-1" data-name="Path 452" transform="translate(126.236 8647.702)"/>
    </g>
</svg>
