<svg xmlns="http://www.w3.org/2000/svg" viewBox="0 0 41.656 41">
    <defs>
        <style>
            .cls-1{fill:#05b52e}.cls-2,.cls-3{stroke:none}.cls-3{fill:#fff}
        </style>
    </defs>
    <g id="Group_164" data-name="Group 164" transform="translate(-635.5 -8767.5)">
        <g id="Path_451" class="cls-1" data-name="Path 451">
            <path d="M538.416 179.73H522.85c-1.71 0-3.1-1.391-3.1-3.1v-10.242h17.714l.043.704c.212 3.457.489 7.326.845 11.828l.064.81zm-1.017-15.006H519.75v-2.693c0-1.709 1.39-3.1 3.1-3.1h14.296l.018.733c.03 1.32.092 2.714.186 4.264l.05.796z" class="cls-2" transform="translate(116.5 8628.021)"/>
            <path d="M537.604 178.98c-.344-4.355-.626-8.271-.845-11.842H520.5V176.629a2.346 2.346 0 0 0 2.35 2.35h14.754m-1.002-15.005a113.097 113.097 0 0 1-.188-4.292H522.85a2.346 2.346 0 0 0-2.35 2.35v1.942h16.102m2.626 16.505H522.85a3.854 3.854 0 0 1-3.85-3.85V165.639h19.169l.087 1.408c.212 3.452.488 7.317.843 11.815l.129 1.618zm-1.031-15.005H519v-3.443a3.854 3.854 0 0 1 3.85-3.85h15.029l.034 1.466c.031 1.31.092 2.695.186 4.235l.098 1.592z" class="cls-3" transform="translate(116.5 8628.021)"/>
        </g>
        <g id="Path_452" class="cls-1" data-name="Path 452">
            <path d="M573.998 160.048h-11.841a3.803 3.803 0 0 1-3.787-3.584c-.025-.344-1.037-14.48-1.16-19.232-.197-7.652-.02-9.604.224-12.305l.091-1.03c.159-1.908 1.706-3.348 3.598-3.348H575.153c.904 0 1.765.349 2.424.984a3.71 3.71 0 0 1 1.116 2.366c.03.358.06.694.09 1.019.24 2.698.415 4.649.163 12.317-.123 4.7-1.126 18.749-1.16 19.223A3.71 3.71 0 0 1 576.62 159a3.793 3.793 0 0 1-2.623 1.048zm-1.656-5.322h.623c.441 0 .8-.343.816-.781v-.012l.085-1.591h-1.409l-.115 2.384zm-4.99-.031h1.797l.115-2.385h-2.028l.115 2.385zm-5-2.385l.084 1.592v.011a.812.812 0 0 0 .817.782h.936l-.115-2.385h-1.722zm10.246-3.16h1.41l.138-2.478h-1.412l-.136 2.478zm-5.534 0h2.366l.117-2.478h-2.62l.137 2.478zm-4.855 0h1.724l-.137-2.478h-1.724l.137 2.478zm10.7-5.639h1.417l.114-1.895a.149.149 0 0 0-.044-.113.203.203 0 0 0-.147-.063h-1.23l-.11 2.071zm-6.125 0h2.963l.109-2.071h-3.18l.108 2.071zm-4.883 0h1.72l-.108-2.071H562c-.08 0-.13.044-.147.063a.15.15 0 0 0-.044.114v.008l.092 1.886zm-.057-16.826a.241.241 0 0 0-.253.252v9.21c0 .15.104.253.253.253h12.53a.242.242 0 0 0 .253-.252v-9.21a.242.242 0 0 0-.253-.253h-12.53z" class="cls-2" transform="translate(97.336 8647.702)"/>
            <path d="M573.998 159.298c1.63 0 2.976-1.284 3.039-2.882 0 0 1.034-14.41 1.159-19.203.282-8.553.031-9.93-.25-13.252-.124-1.484-1.316-2.663-2.793-2.663h-14.03c-1.504 0-2.726 1.16-2.85 2.663-.283 3.29-.533 4.7-.314 13.252.125 4.824 1.16 19.203 1.16 19.203a3.053 3.053 0 0 0 3.038 2.882h11.841m-2.255-7.706h2.913l-.125 2.38a1.559 1.559 0 0 1-1.566 1.504h-1.41l.188-3.884m-5.294-.032h3.602l-.188 3.885h-3.227l-.187-3.885m-1.473 3.885h-1.723a1.559 1.559 0 0 1-1.566-1.504l-.125-2.38h3.226l.188 3.884m7.049-9.523h2.913l-.22 3.978h-2.913l.22-3.978m-5.89 0h4.198l-.188 3.978h-3.79l-.22-3.978m-1.41 3.978H561.5l-.22-3.978h3.227l.22 3.978m7.58-9.21h1.943c.532 0 .971.439.94.971l-.157 2.6h-2.913l.188-3.571m-6.422 0h4.761l-.188 3.571h-4.385l-.188-3.571m-1.473 3.571h-3.226l-.126-2.6c-.03-.532.408-.971.94-.971h2.224l.188 3.571m-2.568-18.326h12.53a.99.99 0 0 1 1.003 1.002v9.21a.99.99 0 0 1-1.003 1.003h-12.53a.99.99 0 0 1-1.003-1.002v-9.21a.99.99 0 0 1 1.003-1.003m12.154 34.863h-11.841c-2.4 0-4.39-1.88-4.536-4.284-.05-.71-1.037-14.482-1.162-19.262-.197-7.696-.019-9.666.228-12.393.03-.327.06-.665.09-1.026a4.418 4.418 0 0 1 1.377-2.86 4.323 4.323 0 0 1 2.969-1.174h14.03c1.1 0 2.145.424 2.945 1.194a4.459 4.459 0 0 1 1.342 2.844c.03.355.06.69.09 1.014.243 2.725.42 4.693.165 12.406-.124 4.729-1.1 18.394-1.16 19.244a4.457 4.457 0 0 1-1.397 3.043 4.54 4.54 0 0 1-3.14 1.254zm-5.932-6.853h.368l.043-.885h-.454l.043.885zm-4.923-.885l.042.802v.024c.003.055.053.059.068.059h.149l-.043-.885h-.216zm4.631-4.66h.94l.047-.978h-1.04l.053.978zm-4.856 0h.223l-.054-.978h-.222l.053.978zm4.578-5.639h1.54l.03-.571h-1.6l.03.571zm-4.88 0h.215l-.03-.571h-.213l.027.571zm-.275-7.111h11.536v-8.215H562.34v8.215z" class="cls-3" transform="translate(97.336 8647.702)"/>
        </g>
    </g>
</svg>
