<svg xmlns="http://www.w3.org/2000/svg" viewBox="0 0 100 118.599">
    <defs>
        <style>
            .cls-1{fill:#0385db}
        </style>
    </defs>
    <g id="noun_1431851_cc" transform="translate(-12.9 -6)">
        <g id="Group" transform="translate(12.9 6)">
            <path id="Path" d="M66.1 59.1H25.429a1.709 1.709 0 0 0 0 3.333H66.1a1.709 1.709 0 0 0 0-3.333z" class="cls-1" transform="translate(-10.433 14.234)"/>
            <path id="Path-2" d="M25.5 52.333h17.2a1.692 1.692 0 0 0 0-3.333H25.5a1.692 1.692 0 0 0 0 3.333z" class="cls-1" data-name="Path" transform="translate(-10.433 10.999)"/>
            <path id="Path-3" d="M66.1 69.1H25.429a1.71 1.71 0 0 0 0 3.333H66.1a1.709 1.709 0 0 0 0-3.333z" class="cls-1" data-name="Path" transform="translate(-10.433 17.568)"/>
            <path id="Path-4" d="M56.116 79.2h-30.7a1.713 1.713 0 0 0 0 3.333h30.7a1.713 1.713 0 0 0 0-3.333z" class="cls-1" data-name="Path" transform="translate(-10.433 20.8)"/>
            <path id="Compound_Path" d="M89.989 6H50.905a12.129 12.129 0 0 0-12.129 12.129v12.534H25.029A12.129 12.129 0 0 0 12.9 42.792v69.677A12.129 12.129 0 0 0 25.029 124.6h49.866a12.129 12.129 0 0 0 12.129-12.129V99.935h13.747A12.129 12.129 0 0 0 112.9 87.806V27.429a1.348 1.348 0 0 0-.4-.943L90.932 6.4zm1.617 4.717l16.577 15.229H91.606zM74.895 121.9H25.029a9.434 9.434 0 0 1-9.434-9.434V42.792a9.434 9.434 0 0 1 9.434-9.434H63.17v18.868a1.348 1.348 0 0 0 1.348 1.348h19.811v58.895a9.434 9.434 0 0 1-9.434 9.434zm-9.03-86.52l16.712 15.5H65.865zm35.04 61.86H87.024V52.092a1.348 1.348 0 0 0-.4-.943L65.056 31.067l-.943-.4H41.471V18.129A9.434 9.434 0 0 1 50.905 8.7h38.006v18.6a1.348 1.348 0 0 0 1.348 1.348H110.2v59.158a9.434 9.434 0 0 1-9.434 9.434z" class="cls-1" data-name="Compound Path" transform="translate(-12.9 -6)"/>
        </g>
    </g>
</svg>
