<svg xmlns="http://www.w3.org/2000/svg" id="ic_fingerprint_black_24px" viewBox="0 0 31 31">
    <defs>
        <style>
            .cls-1{fill:#81cce0}.cls-2{fill:none}
        </style>
    </defs>
    <path id="Path_393" d="M22.131 5.19a.6.6 0 0 1-.3-.077 14.779 14.779 0 0 0-7.195-1.821 14.777 14.777 0 0 0-7.192 1.821.647.647 0 0 1-.62-1.137 16.435 16.435 0 0 1 15.6-.013.654.654 0 0 1-.3 1.227zM3.647 11.972a.673.673 0 0 1-.375-.116.644.644 0 0 1-.155-.9 13.354 13.354 0 0 1 4.844-4.229 14.91 14.91 0 0 1 13.317-.013 13.405 13.405 0 0 1 4.844 4.2.649.649 0 0 1-1.059.749 12.126 12.126 0 0 0-4.379-3.8 13.611 13.611 0 0 0-12.142.013A12.254 12.254 0 0 0 4.151 11.7a.563.563 0 0 1-.5.271zm8.073 15.59a.606.606 0 0 1-.452-.194 13.058 13.058 0 0 1-2.6-3.41 11.466 11.466 0 0 1-1.356-5.606 7.153 7.153 0 0 1 7.311-6.962 7.153 7.153 0 0 1 7.311 6.962.646.646 0 1 1-1.292 0 5.859 5.859 0 0 0-6.019-5.67 5.859 5.859 0 0 0-6.019 5.67 10.119 10.119 0 0 0 1.2 4.973 12.226 12.226 0 0 0 2.39 3.126.663.663 0 0 1 0 .917.708.708 0 0 1-.478.194zm9.261-2.39a6.956 6.956 0 0 1-4-1.15 6.877 6.877 0 0 1-3.074-5.67.646.646 0 0 1 1.292 0 5.556 5.556 0 0 0 2.506 4.6 5.664 5.664 0 0 0 3.281.917 8.536 8.536 0 0 0 1.343-.129.649.649 0 1 1 .22 1.279 8.821 8.821 0 0 1-1.563.155zm-2.6 2.661a.756.756 0 0 1-.168-.026 10.078 10.078 0 0 1-4.805-2.712 9.425 9.425 0 0 1-2.8-6.742 3.9 3.9 0 0 1 3.978-3.8 3.9 3.9 0 0 1 3.978 3.8 2.693 2.693 0 0 0 5.373 0 9.111 9.111 0 0 0-9.363-8.823 9.43 9.43 0 0 0-8.538 5.205 8.309 8.309 0 0 0-.762 3.617 12.836 12.836 0 0 0 .865 4.663.63.63 0 0 1-.375.827.641.641 0 0 1-.827-.375A14.39 14.39 0 0 1 4 18.352a9.7 9.7 0 0 1 .878-4.185 10.719 10.719 0 0 1 9.7-5.942A10.4 10.4 0 0 1 25.231 18.34a3.983 3.983 0 0 1-7.957 0 2.6 2.6 0 0 0-2.687-2.506A2.6 2.6 0 0 0 11.9 18.34a8.134 8.134 0 0 0 2.415 5.825 8.783 8.783 0 0 0 4.224 2.39.641.641 0 0 1 .452.788.63.63 0 0 1-.607.491z" class="cls-1" data-name="Path 393" transform="translate(.874 .583)"/>
    <path id="Path_394" d="M0 0h31v31H0z" class="cls-2" data-name="Path 394"/>
</svg>
