<svg xmlns="http://www.w3.org/2000/svg" viewBox="0 0 48.177 48.176">
    <defs>
        <style>
            .cls-1{opacity:.2}
        </style>
    </defs>
    <g id="noun_711818_cc" class="cls-1" transform="rotate(45 30.688 22.846)">
        <path id="Path_505" d="M35.647 17.589a2.888 2.888 0 1 0 2.888 2.888 2.888 2.888 0 0 0-2.888-2.888zm0 4.353a1.422 1.422 0 1 1 1.422-1.422 1.381 1.381 0 0 1-1.422 1.422zm4.827-7.37a11.549 11.549 0 0 0-14.955 0 11.358 11.358 0 0 0-3.319 12.2h-2.887v3.319h-3.319v3.319h-3.319v3.319H9.4v8.232h7.758l11.464-11.425a11.4 11.4 0 0 0 12.455-2.457 11.2 11.2 0 0 0 3.323-8.361 11.5 11.5 0 0 0-3.926-8.146zm-.56 15.6a9.918 9.918 0 0 1-11.378 1.9l-.431-.215-.086.086-11.551 11.419h-5.473v-5h3.319v-3.318h3.319v-3.319h3.317v-3.318h2.974l.345-.388-.043-.043-.215-.431A9.922 9.922 0 0 1 39.4 15.65a9.776 9.776 0 0 1 3.4 7.15 9.969 9.969 0 0 1-2.887 7.374z" data-name="Path 505"/>
    </g>
</svg>
