<svg xmlns="http://www.w3.org/2000/svg" viewBox="0 0 100 100">
    <defs>
        <style>
            .cls-1{fill:#0385db}
        </style>
    </defs>
    <g id="noun_1323839_cc" transform="translate(-2.5 -2.5)">
        <g id="Group_155" data-name="Group 155" transform="translate(2.5 2.5)">
            <g id="Group_154" data-name="Group 154">
                <path id="Path_413" d="M48.426 7.5H9.907a2.5 2.5 0 0 0 0 5h38.519a2.5 2.5 0 0 0 0-5z" class="cls-1" data-name="Path 413" transform="translate(17.5 12.5)"/>
                <path id="Path_414" d="M35 10.5H10a2.5 2.5 0 0 0 0 5h25a2.5 2.5 0 0 0 0-5z" class="cls-1" data-name="Path 414" transform="translate(17.5 26.167)"/>
                <path id="Path_415" d="M21.389 13.5H10.278A2.651 2.651 0 0 0 7.5 16a2.651 2.651 0 0 0 2.778 2.5h11.111a2.651 2.651 0 0 0 2.778-2.5 2.651 2.651 0 0 0-2.778-2.5z" class="cls-1" data-name="Path 415" transform="translate(17.5 39.833)"/>
                <path id="Path_416" d="M90 2.5H15A12.514 12.514 0 0 0 2.5 15v55A12.514 12.514 0 0 0 15 82.5h35v15H30a2.5 2.5 0 1 0 0 5h45a2.5 2.5 0 0 0 0-5H55v-15h35A12.514 12.514 0 0 0 102.5 70V15A12.514 12.514 0 0 0 90 2.5zM97.5 70a7.509 7.509 0 0 1-7.5 7.5H15A7.509 7.509 0 0 1 7.5 70V15A7.509 7.509 0 0 1 15 7.5h75a7.509 7.509 0 0 1 7.5 7.5z" class="cls-1" data-name="Path 416" transform="translate(-2.5 -2.5)"/>
            </g>
        </g>
    </g>
</svg>
