<svg xmlns="http://www.w3.org/2000/svg" viewBox="0 0 100 80">
    <defs>
        <style>
            .cls-1{fill:#0385db}
        </style>
    </defs>
    <g id="noun_1674022_cc" transform="translate(-1.883 -7.803)">
        <path id="Path_369" d="M19.36 25.265H8.831a1.2 1.2 0 0 0-1.208 1.188V36.81A1.2 1.2 0 0 0 8.831 38H19.36a1.2 1.2 0 0 0 1.208-1.188V26.453a1.2 1.2 0 0 0-1.208-1.188zm-1.208 10.356h-8.113V27.64h8.113z" class="cls-1" data-name="Path 369" transform="translate(3.505 10.201)"/>
        <path id="Path_370" d="M30.682 25.265H20.153a1.2 1.2 0 0 0-1.208 1.188V36.81A1.2 1.2 0 0 0 20.153 38h10.529a1.2 1.2 0 0 0 1.208-1.19V26.453a1.2 1.2 0 0 0-1.208-1.188zm-1.208 10.356h-8.113V27.64h8.113z" class="cls-1" data-name="Path 370" transform="translate(10.416 10.201)"/>
        <path id="Path_371" d="M31.475 38H42a1.2 1.2 0 0 0 1.208-1.188v-10.36A1.2 1.2 0 0 0 42 25.264H31.475a1.2 1.2 0 0 0-1.208 1.188v10.357A1.2 1.2 0 0 0 31.475 38zm1.208-10.356h8.112v7.981h-8.112z" class="cls-1" data-name="Path 371" transform="translate(17.327 10.201)"/>
        <path id="Path_372" d="M19.36 36.867H8.831a1.2 1.2 0 0 0-1.208 1.188v10.356A1.2 1.2 0 0 0 8.831 49.6H19.36a1.2 1.2 0 0 0 1.208-1.188V38.055a1.2 1.2 0 0 0-1.208-1.188zm-1.208 10.356h-8.113v-7.98h8.113z" class="cls-1" data-name="Path 372" transform="translate(3.505 16.979)"/>
        <path id="Path_373" d="M30.682 36.867H20.153a1.2 1.2 0 0 0-1.208 1.188v10.356a1.2 1.2 0 0 0 1.208 1.189h10.529a1.2 1.2 0 0 0 1.208-1.188V38.055a1.2 1.2 0 0 0-1.208-1.188zm-1.208 10.356h-8.113v-7.98h8.113z" class="cls-1" data-name="Path 373" transform="translate(10.416 16.979)"/>
        <path id="Path_374" d="M88.019 47.178V18.939a5.79 5.79 0 0 0-5.831-5.739H73.9V8.99a1.208 1.208 0 0 0-2.416 0v4.21H60.028V8.99a1.208 1.208 0 0 0-2.416 0v4.21H46.159V8.99a1.208 1.208 0 0 0-2.416 0v4.21H32.29V8.99a1.208 1.208 0 0 0-2.416 0v4.21H18.423V8.99a1.208 1.208 0 0 0-2.416 0v4.21H7.713a5.791 5.791 0 0 0-5.831 5.736v51.538a5.79 5.79 0 0 0 5.831 5.736h53.778a21.385 21.385 0 0 0 40.391-9.4 21.03 21.03 0 0 0-13.863-19.632zM7.712 15.577h8.294v4.212a1.208 1.208 0 0 0 2.416 0v-4.212h11.451v4.212a1.208 1.208 0 0 0 2.416 0v-4.212h11.453v4.212a1.208 1.208 0 0 0 2.416 0v-4.212h11.453v4.212a1.208 1.208 0 0 0 2.416 0v-4.212h11.452v4.212a1.208 1.208 0 0 0 2.416 0v-4.212h8.292a3.392 3.392 0 0 1 3.416 3.36v6.9H4.3v-6.9a3.393 3.393 0 0 1 3.412-3.36zm0 58.256a3.392 3.392 0 0 1-3.412-3.36V28.209h81.3v18.234a21.593 21.593 0 0 0-5.063-.623c-.6 0-1.184.04-1.77.089v-9.256a1.2 1.2 0 0 0-1.208-1.188H67.034a1.2 1.2 0 0 0-1.208 1.188V47.01a1.2 1.2 0 0 0 1.208 1.19h3.683a21.2 21.2 0 0 0-10.181 11.379v-4.544a1.2 1.2 0 0 0-1.208-1.188H48.8a1.2 1.2 0 0 0-1.208 1.188v10.356a1.2 1.2 0 0 0 1.208 1.188h10.415c0 .079-.013.155-.013.233a20.553 20.553 0 0 0 1.255 7.023H7.712zm68.645-28.011h-8.114v-7.981h8.113zm-18.235 10.4V64.2H50.01v-7.978zm22.42 29.2a18.616 18.616 0 1 1 18.923-18.61 18.791 18.791 0 0 1-18.923 18.614z" class="cls-1" data-name="Path 374"/>
        <path id="Path_375" d="M62.912 39.79a1.217 1.217 0 0 0-1.66.393l-8.438 13.552-5.763-5.795a1.224 1.224 0 0 0-1.709-.019 1.175 1.175 0 0 0-.019 1.681l6.848 6.885a1.449 1.449 0 0 0 .121.081.952.952 0 0 0 .111.1.848.848 0 0 0 .118.051.766.766 0 0 0 .1.044 1.247 1.247 0 0 0 .406.079 1.216 1.216 0 0 0 .522-.131 1.088 1.088 0 0 0 .139-.09 1.12 1.12 0 0 0 .184-.117 1.038 1.038 0 0 0 .106-.157c.024-.03.058-.04.079-.073l9.247-14.851a1.172 1.172 0 0 0-.392-1.633z" class="cls-1" data-name="Path 375" transform="translate(26.307 18.583)"/>
    </g>
</svg>
