<svg xmlns="http://www.w3.org/2000/svg" viewBox="0 0 30 28.028">
    <defs>
        <style>
            .cls-1{fill:#81cce0}
        </style>
    </defs>
    <g id="noun_1040056_cc" transform="translate(-13.098 -14.862)">
        <g id="Group_180" data-name="Group 180" transform="translate(13.098 14.862)">
            <path id="Path_460" d="M15.774 42.89h24.607a2.716 2.716 0 0 0 2.719-2.716V26.107a2.749 2.749 0 0 0-1.216-2.27l-3.04-2.108v-.892a2.266 2.266 0 0 0-2.27-2.27H34.26l-.041-.041-4.662-3.243a2.637 2.637 0 0 0-2.919.041l-4.5 3.122a.317.317 0 0 0-.162.162h-2.351a2.266 2.266 0 0 0-2.27 2.27v.892l-3 2.067a2.6 2.6 0 0 0-1.257 2.27v14.108a2.647 2.647 0 0 0 2.676 2.675zm.649-1.622l11.229-9.486a.563.563 0 0 1 .77 0l11.27 9.486zM38.8 23.715l2.149 1.459a1 1 0 0 1 .486.73l-2.595 2.189v-4.378zm2.635 4.3v12.159a1.184 1.184 0 0 1-.081.365l-7.378-6.2zM27.49 16.661a1.251 1.251 0 0 1 1.135-.041l2.8 1.946h-6.73zm-8.554 4.176a.64.64 0 0 1 .649-.649H36.53a.64.64 0 0 1 .649.649v8.675l-4.459 3.77-3.2-2.716a2.262 2.262 0 0 0-2.878 0l-3.2 2.716-4.459-3.77v-8.675zm-3.73 4.338l2.108-1.459v4.419l-2.594-2.19a1 1 0 0 1 .487-.771zm-.527 2.838l7.46 6.287-7.378 6.284a1.2 1.2 0 0 1-.081-.405z" class="cls-1" data-name="Path 460" transform="translate(-13.098 -14.862)"/>
            <path id="Path_461" d="M35.811 36.622h10.54a.811.811 0 1 0 0-1.622h-10.54a.811.811 0 0 0 0 1.622z" class="cls-1" data-name="Path 461" transform="translate(-26.121 -26.836)"/>
            <path id="Path_462" d="M47.162 44.811a.813.813 0 0 0-.811-.811h-10.54a.811.811 0 0 0 0 1.622h10.54a.813.813 0 0 0 .811-.811z" class="cls-1" data-name="Path 462" transform="translate(-26.121 -32.188)"/>
        </g>
    </g>
</svg>
