<svg xmlns="http://www.w3.org/2000/svg" viewBox="0 0 40 35.455">
    <defs>
        <style>
            .cls-1{opacity:.2}
        </style>
    </defs>
    <g id="noun_1053342_cc" class="cls-1" transform="translate(-6 -11)">
        <path id="Path_546" d="M17.364 11a4.591 4.591 0 0 0-4.545 4.616v23.111h-5.91a.909.909 0 0 0-.909.909v2.2a4.591 4.591 0 0 0 4.545 4.616h23.637a4.591 4.591 0 0 0 4.545-4.616V19.182h6.364a.909.909 0 0 0 .909-.909v-2.657A4.59 4.59 0 0 0 41.455 11zm0 1.818h20.468a4.64 4.64 0 0 0-.923 2.8v26.22a2.735 2.735 0 0 1-2.727 2.8h-.014a.909.909 0 0 0-.227-.085 2.766 2.766 0 0 1-2.031-2.713v-2.2a.909.909 0 0 0-.91-.913H14.636V15.616a2.735 2.735 0 0 1 2.728-2.798zm23.58 0h.511a2.736 2.736 0 0 1 2.727 2.8v1.747h-5.455v-1.749a2.763 2.763 0 0 1 1.918-2.67.909.909 0 0 0 .3-.128zm-22.075 4.546a.91.91 0 1 0 .085 1.818h13.637a.909.909 0 1 0 0-1.818H18.955q-.043-.002-.086 0zm0 5a.91.91 0 1 0 .085 1.818h13.637a.909.909 0 1 0 0-1.818H18.955q-.043-.002-.086 0zm0 5a.91.91 0 1 0 .085 1.818h13.637a.909.909 0 1 0 0-1.818H18.955q-.043-.002-.086 0zm0 5a.91.91 0 1 0 .085 1.818h13.637a.909.909 0 1 0 0-1.818H18.955q-.043-.002-.086 0zM7.818 40.545h22.273v1.293a4.66 4.66 0 0 0 .938 2.8H10.545a2.735 2.735 0 0 1-2.727-2.8z" data-name="Path 546"/>
    </g>
</svg>
