<svg xmlns="http://www.w3.org/2000/svg" viewBox="0 0 100 103.85">
    <defs>
        <style>
            .cls-1{fill:#0385db}
        </style>
    </defs>
    <g id="noun_773386_cc" transform="translate(-4 -2.8)">
        <path id="Path_422" d="M104.189 34.483A51.914 51.914 0 0 0 76.577 6.87 50.805 50.805 0 0 0 56.335 2.8a51.721 51.721 0 0 0-20.352 4.07A51.914 51.914 0 0 0 8.37 34.483 50.805 50.805 0 0 0 4.3 54.725a51.859 51.859 0 0 0 31.683 47.854 50.805 50.805 0 0 0 20.242 4.07 50.805 50.805 0 0 0 20.242-4.07 52.564 52.564 0 0 0 16.5-11.111 50.521 50.521 0 0 0 3.96-4.51l3.3 4.4 2.2-17.162-13.859 10.341 5.06.66a25.874 25.874 0 0 1-3.3 3.63 47.448 47.448 0 0 1-15.4 10.341 47.879 47.879 0 0 1-37.623 0A49.91 49.91 0 0 1 21.9 88.828a47.448 47.448 0 0 1-10.341-15.4 50.986 50.986 0 0 1-3.63-18.7 47.954 47.954 0 0 1 3.85-18.812 49.91 49.91 0 0 1 10.341-15.4 47.448 47.448 0 0 1 15.4-10.341 47.88 47.88 0 0 1 37.623 0 49.91 49.91 0 0 1 15.4 10.341 47.448 47.448 0 0 1 10.341 15.4 1.965 1.965 0 0 0 2.42.99 2.036 2.036 0 0 0 .885-2.423z" class="cls-1" data-name="Path 422" transform="translate(-.3)"/>
        <path id="Path_423" d="M51.331 75c-6.05-.548-10.891-2.87-15.731-7.071l2.2-2.543c4.07 3.87 8.251 6.191 13.641 6.634V53.114c-9.9-2.211-13.971-5.86-13.971-12.383v-.221c0-6.634 5.831-11.719 13.861-11.94V24.7h3.19v3.98a21.8 21.8 0 0 1 12.762 5.42l-2.2 2.543a18.783 18.783 0 0 0-10.671-5.086v18.682c10.011 2.1 14.3 5.97 14.3 12.383v.111c0 6.965-5.831 11.94-14.191 12.272v6.523h-3.19V75zm.11-43.45c-6.381.111-10.671 3.98-10.671 8.734v.116c0 4.312 2.09 7.186 10.671 9.287zM65.3 63.175v-.111c0-4.533-2.2-7.3-10.891-9.287V72.13c6.603-.221 10.891-3.98 10.891-8.955z" class="cls-1" data-name="Path 423" transform="translate(3.833 2.313)"/>
    </g>
</svg>
