<svg xmlns="http://www.w3.org/2000/svg" viewBox="0 0 156.313 89.998">
    <defs>
        <style>
            .cls-1{fill:none}.cls-2{fill:#0385db}.cls-3{fill:#fff}
        </style>
    </defs>
    <g id="Group_487" data-name="Group 487" transform="translate(17405.001 8612.695)">
        <path id="Path_193" d="M24.11 38.189a5.676 5.676 0 0 0 2.819 3.159c1.087.478 2.99-.815 4.349-2.1a491.172 491.172 0 0 0-4.621-4.711z" class="cls-1" data-name="Path 193" transform="translate(-17347.076 -8585.745)"/>
        <path id="Path_194" d="M18.33 11.919L1.558 47.661l16.7 7.829 16.756-35.74zm-5.19 35.813a3.142 3.142 0 1 1 3.142-3.142 3.142 3.142 0 0 1-3.142 3.142z" class="cls-1" data-name="Path 194" transform="translate(-17385.824 -8624.615)"/>
        <path id="Path_195" d="M19.048 29.987a2.7 2.7 0 0 0-1.631-1.677 4.944 4.944 0 0 0-3.9 1.647h-.014a7.652 7.652 0 0 0 0 4.387c.171.389 1.519.582 2.827.443 1.753-1.979 2.943-4.221 2.718-4.8z" class="cls-1" data-name="Path 195" transform="translate(-17365.844 -8596.46)"/>
        <path id="Path_196" d="M21.816 29.414a4.749 4.749 0 0 0-2.634.234 15.85 15.85 0 0 1-3.659 6c-.348.843-1.022 3.047-.016 3.806a4.287 4.287 0 0 0 2.767-.092c1.215-2.055 3.806-6.38 5.086-7.967a6.252 6.252 0 0 0-1.544-1.981z" class="cls-1" data-name="Path 196" transform="translate(-17362.768 -8594.707)"/>
        <path id="Path_197" d="M52.248 29.217c-5.358 5.472-11.022 8.987-14.706 9.06a4.3 4.3 0 0 1-3.085-1.1c-3.664-3.664.114-8.005 1.536-9.636a8.427 8.427 0 0 0 1.737-3.806 6.864 6.864 0 0 1 1.585-3.411 20.237 20.237 0 0 1 3.02-2.063H24.443a7.975 7.975 0 0 1-3.05-.834L9.634 42.482c3.015 1.31 6.051 2.68 7.8 3.346a7.848 7.848 0 0 1 6.811-2.228 5.82 5.82 0 0 1 3.634 2.99 6.524 6.524 0 0 1 5.121.388 9.185 9.185 0 0 1 2.5 2.952 6.266 6.266 0 0 1 6.024 1.408l2.718 2.395a13 13 0 0 1 4.529 2.688C51.226 58.5 58.451 66 59.677 67.265c.68.383 3.493 1.808 5.148.147a4.939 4.939 0 0 0 1.484-2.232L48.1 49.2a1.757 1.757 0 1 1 2.319-2.639L68.46 62.394a1.919 1.919 0 0 1 .495.272c1.019.506 3.333 1.4 4.776-.046a4.621 4.621 0 0 0 1.5-2.316 17.863 17.863 0 0 1-3.118-2.49c-5.627-5.627-16.535-14.135-16.647-14.233a1.756 1.756 0 1 1 2.158-2.77c.454.354 11.188 8.739 16.97 14.518a13.776 13.776 0 0 0 3.055 2.4c.033.022.073.027.106.049a5.273 5.273 0 0 0 2.661.7 4.569 4.569 0 0 0 3.031-1.525 8.081 8.081 0 0 0-2.017-3.778z" class="cls-1" data-name="Path 197" transform="translate(-17371.949 -8615.158)"/>
        <path id="Path_198" d="M57.427 22.277a27.935 27.935 0 0 1-10.938-3.123A25.223 25.223 0 0 0 40.4 17c-3.882-.508-14.249 5.3-15.54 6.586a4.749 4.749 0 0 0-.663 1.791 11.786 11.786 0 0 1-2.5 5.254c-3.047 3.5-2.2 4.349-1.7 4.844.8.571 6.48-1.055 13.863-9.06a1.751 1.751 0 0 1 2.4-.166l29.36 24.107a20.958 20.958 0 0 1 7.709-4.586c.492-.15 1.12-.3 1.791-.451L65.408 20.1a24.807 24.807 0 0 1-7.981 2.177z" class="cls-1" data-name="Path 198" transform="translate(-17355.004 -8615.942)"/>
        <path id="Rectangle_88" d="M0 0h18.427v39.482H0z" class="cls-1" data-name="Rectangle 88" transform="rotate(-21.05 -31811.824 42249.351)"/>
        <path id="Path_199" d="M26.383 31.362a2.841 2.841 0 0 0-3.806-.087 95.736 95.736 0 0 0-5.235 8.255 1.854 1.854 0 0 0-.171 1.47 2.748 2.748 0 0 0 1.571 1.49c1.172.544 3.327-.454 4.452-1.161a1.631 1.631 0 0 1 .106-.272l5.007-7.994z" class="cls-1" data-name="Path 199" transform="translate(-17359.135 -8592.54)"/>
        <path id="Path_200" d="M27.957 33.789a12.482 12.482 0 0 0-2.376-1.631L20.544 40.2c-.019.03-.052.038-.071.065v.046c-.084.378-.234 1.786 1.718 2.751.889.432 3.308-.815 5-2.267l3.262-4.681c-1.028-.99-1.922-1.836-2.496-2.325z" class="cls-1" data-name="Path 200" transform="translate(-17353.396 -8589.84)"/>
        <path id="Path_201" d="M138.472 15.345a1.9 1.9 0 0 0-1-1.057 1.873 1.873 0 0 0-1.459-.025l-23.557 9.106a1.907 1.907 0 0 0-1.088 2.461l1.917 5a25.066 25.066 0 0 1-7.808 2.261 29.012 29.012 0 0 1-11.073-3.3 31.815 31.815 0 0 0-8.226-2.835A24.294 24.294 0 0 0 75 29.832a2.015 2.015 0 0 0-1.338-.527H47.371a5.109 5.109 0 0 1-1.829-.556l2.215-4.762a1.908 1.908 0 0 0-.911-2.54L24 10.7a1.894 1.894 0 0 0-2.525.918L.342 56.806a1.908 1.908 0 0 0 .911 2.54l22.855 10.763a1.864 1.864 0 0 0 .807.184 1.9 1.9 0 0 0 1.718-1.1l1.759-3.759c3.312 1.457 6.736 3.01 8.953 3.854a11.678 11.678 0 0 0 .516 6.4 5.691 5.691 0 0 0 5.249 3 6.548 6.548 0 0 0 2.072 6.639 6.433 6.433 0 0 0 4.483 1.032 6.006 6.006 0 0 0 .278 1.324 7.085 7.085 0 0 0 3.993 4.162 8.439 8.439 0 0 0 6.679-.362 7.453 7.453 0 0 0 3.9 4.156 8.835 8.835 0 0 0 8.273-1.683 10.177 10.177 0 0 0 4.784 4.531 5.466 5.466 0 0 0 2.215.464 12.326 12.326 0 0 0 7.745-4.127 11.082 11.082 0 0 0 4.483 1.048 7.169 7.169 0 0 0 5.242-2.137 10.308 10.308 0 0 0 2.566-3.81 10.008 10.008 0 0 0 2.56.378 7.172 7.172 0 0 0 5.242-2.137 10.229 10.229 0 0 0 2.6-3.911 9.055 9.055 0 0 0 2.091.276h.4a9.311 9.311 0 0 0 6.226-2.978c2.493-2.5.475-6.372-1.073-8.591a20.234 20.234 0 0 1 7.3-4.381c.633-.19 1.465-.384 2.379-.581l1.705 4.445a1.9 1.9 0 0 0 1.772 1.219 1.851 1.851 0 0 0 .683-.127l23.558-9.106a1.907 1.907 0 0 0 1.088-2.461zM24.016 65.848l.1-50.89zm21.036 8.712c-1.519.162-3.091-.064-3.29-.518a8.967 8.967 0 0 1 0-5.124h.016a5.745 5.745 0 0 1 4.534-1.924 3.144 3.144 0 0 1 1.9 1.959c.25.67-1.136 3.289-3.17 5.607zm5.834 7.394a4.973 4.973 0 0 1-3.221.108c-1.171-.9-.383-3.47.019-4.445a18.524 18.524 0 0 0 4.258-7.01 5.509 5.509 0 0 1 3.066-.273 7.3 7.3 0 0 1 1.8 2.321c-1.487 1.848-4.515 6.9-5.932 9.3zm10.08 4.483a1.909 1.909 0 0 0-.123.317c-1.31.825-3.822 1.981-5.182 1.356a3.2 3.2 0 0 1-1.829-1.74 2.172 2.172 0 0 1 .2-1.711 111.875 111.875 0 0 1 6.084-9.629 3.3 3.3 0 0 1 4.429.1l2.236 1.97zm11.2 2.873c-1.971 1.686-4.787 3.153-5.821 2.648-2.272-1.124-2.1-2.772-2-3.213v-.054c.022-.032.06-.044.082-.076l5.862-9.394a14.525 14.525 0 0 1 2.765 1.9c.674.571 1.715 1.559 2.9 2.724zm7.065 5.42a6.621 6.621 0 0 1-3.281-3.689l2.964-4.264a733.083 733.083 0 0 1 5.378 5.5c-1.607 1.5-3.812 3.01-5.075 2.451zm33.314-14.33a6.121 6.121 0 0 1-3.1-.816c-.038-.025-.085-.032-.123-.057a16.043 16.043 0 0 1-3.556-2.8c-6.729-6.75-19.22-16.544-19.752-16.957A2.048 2.048 0 0 0 83.5 63c.13.1 12.823 10.051 19.375 16.623a20.806 20.806 0 0 0 3.629 2.908 5.4 5.4 0 0 1-1.746 2.705c-1.68 1.686-4.372.635-5.559.054a2.231 2.231 0 0 0-.576-.317l-21-18.5a2.049 2.049 0 0 0-2.7 3.083l21.2 18.668a5.77 5.77 0 0 1-1.723 2.614c-1.927 1.94-5.2.276-5.992-.171C86.982 89.183 78.573 80.433 75.706 78a15.115 15.115 0 0 0-5.271-3.14l-3.164-2.8a7.274 7.274 0 0 0-7.011-1.645 10.718 10.718 0 0 0-2.93-3.454 7.569 7.569 0 0 0-5.964-.457 6.779 6.779 0 0 0-4.23-3.492 9.114 9.114 0 0 0-7.928 2.607c-2.034-.778-5.568-2.378-9.077-3.908l13.69-29.276a9.257 9.257 0 0 0 3.55.975H68.2a23.551 23.551 0 0 0-3.515 2.41 8.029 8.029 0 0 0-1.844 3.984 9.858 9.858 0 0 1-2.022 4.445c-1.655 1.9-6.055 6.985-1.788 11.255a4.991 4.991 0 0 0 3.585 1.3c4.287-.086 10.88-4.191 17.116-10.582l33.979 27.983a9.45 9.45 0 0 1 2.348 4.413 5.312 5.312 0 0 1-3.524 1.778zm11.447-15.773a24.376 24.376 0 0 0-8.95 5.359L80.873 41.827a2.032 2.032 0 0 0-2.8.194c-8.6 9.353-15.211 11.249-16.135 10.582-.585-.591-1.582-1.587 1.981-5.658a13.787 13.787 0 0 0 2.9-6.137 5.559 5.559 0 0 1 .772-2.092c1.5-1.508 13.569-8.29 18.087-7.693a29.288 29.288 0 0 1 7.09 2.518 32.428 32.428 0 0 0 12.709 3.645 28.794 28.794 0 0 0 9.273-2.54l11.307 29.463c-.774.164-1.505.342-2.065.517zm8.137 4.635L115.6 26.229l20.014-7.737 16.516 43.032z" class="cls-2" data-name="Path 201" transform="translate(-17405.16 -8621.646)"/>
        <circle id="Ellipse_4" cx="3.58" cy="3.58" r="3.58" class="cls-3" data-name="Ellipse 4" transform="translate(-17387.936 -8566.373)"/>
    </g>
</svg>
