<svg width="44" height="53" viewBox="0 0 44 53" fill="none" xmlns="http://www.w3.org/2000/svg">
<path d="M43.7539 24.852C43.5394 24.4797 43.2508 24.1555 42.9059 23.8994C42.5611 23.6432 42.1672 23.4607 41.7489 23.363V18.729C41.7489 8.41 32.9359 0 22.1089 0C11.2819 0 2.47088 8.41 2.47088 18.729V23.364C2.05008 23.4668 1.65514 23.6556 1.31092 23.9186C0.966708 24.1816 0.680688 24.513 0.470883 24.892C0.141909 25.5269 -0.0195236 26.2353 0.00188168 26.95V37.15C-0.0178163 37.8614 0.143568 38.5661 0.470883 39.198C0.798599 39.7606 1.27986 40.2182 1.85829 40.5172C2.43672 40.8161 3.08836 40.9441 3.73688 40.886H5.28488C5.31599 41.395 5.54036 41.8729 5.91211 42.222C6.28387 42.5711 6.77493 42.7649 7.28488 42.764H9.04288C9.57331 42.764 10.082 42.5533 10.4571 42.1782C10.8322 41.8031 11.0429 41.2944 11.0429 40.764V23.134C11.0429 22.6036 10.8322 22.0949 10.4571 21.7198C10.082 21.3447 9.57331 21.134 9.04288 21.134H7.23588C6.70545 21.134 6.19674 21.3447 5.82167 21.7198C5.44659 22.0949 5.23588 22.6036 5.23588 23.134V23.214H4.42888V18.729C4.42888 9.5 12.3399 2 22.0689 2C31.7979 2 39.7089 9.5 39.7089 18.729V23.214H38.8999V23.134C38.8999 22.6036 38.6892 22.0949 38.3141 21.7198C37.939 21.3447 37.4303 21.134 36.8999 21.134H35.2239C34.6935 21.134 34.1847 21.3447 33.8097 21.7198C33.4346 22.0949 33.2239 22.6036 33.2239 23.134V40.834C33.2359 41.3174 33.4226 41.7801 33.7495 42.1364C34.0764 42.4927 34.5213 42.7185 35.0019 42.772C34.8114 44.0424 34.2483 45.2277 33.3839 46.178C31.8159 47.916 29.2589 48.915 25.8129 49.178V48.739C25.7869 48.1858 25.5435 47.6653 25.1356 47.2907C24.7276 46.9161 24.1883 46.7178 23.6349 46.739H19.3489C18.7955 46.7178 18.2561 46.9161 17.8482 47.2907C17.4403 47.6653 17.1969 48.1858 17.1709 48.739V51.739C17.1969 52.2922 17.4403 52.8127 17.8482 53.1873C18.2561 53.5619 18.7955 53.7602 19.3489 53.739H23.6739C24.2273 53.7602 24.7667 53.5619 25.1746 53.1873C25.5825 52.8127 25.8259 52.2922 25.8519 51.739V51.18C29.8969 50.91 32.9519 49.692 34.9019 47.544C36.1159 46.2225 36.8816 44.5514 37.0899 42.769C37.5769 42.7402 38.0366 42.5345 38.3824 42.1905C38.7283 41.8464 38.9365 41.3878 38.9679 40.901H40.5159C41.1644 40.9591 41.816 40.8311 42.3945 40.5322C42.9729 40.2332 43.4542 39.7756 43.7819 39.213C44.1092 38.5811 44.2706 37.8764 44.2509 37.165V26.949C44.2704 26.2187 44.0991 25.4959 43.7539 24.852ZM7.28488 38.966V25.171C7.29515 25.0546 7.29515 24.9374 7.28488 24.821V23.174L8.96288 23.124V40.774H7.28488V38.966ZM5.28488 25.122V38.886H3.73988C2.58088 38.886 2.31188 38.397 2.22188 38.227C2.06015 37.8876 1.98459 37.5136 2.00188 37.138V26.949C1.97964 26.5706 2.0518 26.1926 2.21188 25.849C2.30188 25.689 2.57188 25.19 3.72988 25.19L5.28488 25.122ZM23.8969 50.193V51.561C23.875 51.601 23.8434 51.6348 23.8049 51.6593C23.7664 51.6838 23.7224 51.6981 23.6769 51.701H19.3489C19.2956 51.7049 19.2421 51.7049 19.1889 51.701V48.785C19.2166 48.7622 19.2485 48.7452 19.2829 48.7349C19.3172 48.7246 19.3532 48.7212 19.3889 48.725H23.8889L23.8969 50.193ZM36.9419 25.171V40.771H35.2489V23.134H36.9669L36.9419 25.171ZM41.9959 38.246C41.9059 38.406 41.6359 38.905 40.4779 38.905H38.9399V25.211H40.4779C41.6369 25.211 41.9059 25.7 41.9959 25.87C42.1576 26.2094 42.2332 26.5834 42.2159 26.959V37.159C42.2329 37.5342 42.1574 37.9079 41.9959 38.247V38.246Z" transform="scale(0.98622)" fill="#0385DB"/>
</svg>
